<svg width="512" height="512" viewBox="0 0 512 512" fill="none" xmlns="http://www.w3.org/2000/svg">
<path d="M17.1 220C4.20005 242.3 4.20005 269.7 17.1 292L105.4 444.9C118.3 467.2 142 480.9 167.8 480.9H344.3C370 480.9 393.8 467.2 406.7 444.9L494.9 292C507.8 269.7 507.8 242.3 494.9 220L406.6 67.1C393.7 44.8 370 31.1 344.2 31.1H167.7C142 31.1 118.2 44.8 105.3 67.1L17.1 220ZM158.3 279.8C162.8 274.9 169.1 272.1 175.7 272C182.3 271.9 188.7 274.6 193.3 279.4L232.2 320L303.8 233.8C308.4 228.3 315.1 225.1 322.3 225.1C329.5 225.1 336.2 228.3 340.8 233.8L413.4 321.2L358.2 416.9C355.3 421.9 350.1 424.9 344.3 424.9H167.7C162 424.9 156.7 421.9 153.8 416.9L107 335.9L158.2 279.8H158.3ZM192 120C202.609 120 212.783 124.214 220.284 131.716C227.786 139.217 232 149.391 232 160C232 170.609 227.786 180.783 220.284 188.284C212.783 195.786 202.609 200 192 200C181.391 200 171.217 195.786 163.716 188.284C156.214 180.783 152 170.609 152 160C152 149.391 156.214 139.217 163.716 131.716C171.217 124.214 181.391 120 192 120Z" fill="#B069E8"/>
</svg>
