<svg width="576" height="512" viewBox="0 0 576 512" fill="none" xmlns="http://www.w3.org/2000/svg">
<g clip-path="url(#clip0_246_82)">
<path d="M64 0C28.7 0 0 28.7 0 64V224C0 259.3 28.7 288 64 288H512C547.3 288 576 259.3 576 224V64C576 28.7 547.3 0 512 0H64ZM80 64H112C120.8 64 128 71.2 128 80V112C128 120.8 120.8 128 112 128H80C71.2 128 64 120.8 64 112V80C64 71.2 71.2 64 80 64ZM64 176C64 167.2 71.2 160 80 160H112C120.8 160 128 167.2 128 176V208C128 216.8 120.8 224 112 224H80C71.2 224 64 216.8 64 208V176ZM176 160H400C408.8 160 416 167.2 416 176V208C416 216.8 408.8 224 400 224H176C167.2 224 160 216.8 160 208V176C160 167.2 167.2 160 176 160ZM448 176C448 167.2 455.2 160 464 160H496C504.8 160 512 167.2 512 176V208C512 216.8 504.8 224 496 224H464C455.2 224 448 216.8 448 208V176ZM176 64H208C216.8 64 224 71.2 224 80V112C224 120.8 216.8 128 208 128H176C167.2 128 160 120.8 160 112V80C160 71.2 167.2 64 176 64ZM256 80C256 71.2 263.2 64 272 64H304C312.8 64 320 71.2 320 80V112C320 120.8 312.8 128 304 128H272C263.2 128 256 120.8 256 112V80ZM368 64H400C408.8 64 416 71.2 416 80V112C416 120.8 408.8 128 400 128H368C359.2 128 352 120.8 352 112V80C352 71.2 359.2 64 368 64ZM448 80C448 71.2 455.2 64 464 64H496C504.8 64 512 71.2 512 80V112C512 120.8 504.8 128 496 128H464C455.2 128 448 120.8 448 112V80ZM153.8 366.8C150.1 375.8 152.1 386.1 159 393L271 505C280.4 514.4 295.6 514.4 304.9 505L417 393C423.9 386.1 425.9 375.8 422.2 366.8C418.5 357.8 409.7 352 400 352H176C166.3 352 157.5 357.8 153.8 366.8Z" fill="#D0206A"/>
</g>
<defs>
<clipPath id="clip0_246_82">
<rect width="576" height="512" fill="white"/>
</clipPath>
</defs>
</svg>
