<svg width="640" height="512" viewBox="0 0 640 512" fill="none" xmlns="http://www.w3.org/2000/svg">
<path d="M579.8 267.7C636.3 211.2 636.3 119.7 579.8 63.2C529.8 13.2 451 6.70002 393.5 47.8L391.9 48.9C377.5 59.2 374.2 79.2 384.5 93.5C394.8 107.8 414.8 111.2 429.1 100.9L430.7 99.8C462.8 76.9 506.7 80.5 534.5 108.4C566 139.9 566 190.9 534.5 222.4L422.3 334.8C390.8 366.3 339.8 366.3 308.3 334.8C280.4 306.9 276.8 263 299.7 231L300.8 229.4C311.1 215 307.7 195 293.4 184.8C279.1 174.6 259 177.9 248.8 192.2L247.7 193.8C206.5 251.2 213 330 263 380C319.5 436.5 411 436.5 467.5 380L579.8 267.7ZM60.2 244.3C3.7 300.8 3.7 392.3 60.2 448.8C110.2 498.8 189 505.3 246.5 464.2L248.1 463.1C262.5 452.8 265.8 432.8 255.5 418.5C245.2 404.2 225.2 400.8 210.9 411.1L209.3 412.2C177.2 435.1 133.3 431.5 105.5 403.6C74 372 74 321 105.5 289.5L217.7 177.2C249.2 145.7 300.2 145.7 331.7 177.2C359.6 205.1 363.2 249 340.3 281.1L339.2 282.7C328.9 297.1 332.3 317.1 346.6 327.3C360.9 337.5 381 334.2 391.2 319.9L392.3 318.3C433.5 260.8 427 182 377 132C320.5 75.5 229 75.5 172.5 132L60.2 244.3Z" fill="#4AC8C8"/>
</svg>
