<svg width="576" height="512" viewBox="0 0 576 512" fill="none" xmlns="http://www.w3.org/2000/svg">
<path d="M64 80C55.2 80 48 87.2 48 96V240H176C184.4 240 192.2 244.4 196.6 251.7L222.1 294.2L282.5 173.3C286.4 165.5 294.3 160.4 303 160.1C311.7 159.8 320 164.2 324.5 171.7L365.5 240H424C437.3 240 448 250.7 448 264C448 277.3 437.3 288 424 288H352C343.6 288 335.8 283.6 331.4 276.3L305.9 233.8L245.5 354.7C241.6 362.5 233.7 367.6 225 367.9C216.3 368.2 208 363.8 203.5 356.3L162.5 288H48V416C48 424.8 55.2 432 64 432H512C520.8 432 528 424.8 528 416V96C528 87.2 520.8 80 512 80H64ZM0 96C0 60.7 28.7 32 64 32H512C547.3 32 576 60.7 576 96V416C576 451.3 547.3 480 512 480H64C28.7 480 0 451.3 0 416V96Z" fill="#97D14E"/>
</svg>
