<svg width="576" height="512" viewBox="0 0 576 512" fill="none" xmlns="http://www.w3.org/2000/svg">
<path d="M0 80C0 53.5 21.5 32 48 32H272C298.5 32 320 53.5 320 80V208C320 234.5 298.5 256 272 256H48C21.5 256 0 234.5 0 208V80ZM384 80C384 53.5 405.5 32 432 32H528C554.5 32 576 53.5 576 80V336C576 362.5 554.5 384 528 384H432C405.5 384 384 362.5 384 336V80ZM112 304H288C314.5 304 336 325.5 336 352V432C336 458.5 314.5 480 288 480H112C85.5 480 64 458.5 64 432V352C64 325.5 85.5 304 112 304Z" fill="#3CBA54"/>
</svg>
