<svg width="172" height="48" viewBox="0 0 172 48" fill="none" xmlns="http://www.w3.org/2000/svg">
<g clip-path="url(#clip0_1_19)">
<path d="M0.743896 1H7.7639V31.576H23.5199V38.232H0.743896V1Z" fill="#1D2B44"/>
<path d="M39.9761 11C41.9521 11 43.7547 11.3467 45.3841 12.04C47.0481 12.6987 48.4694 13.6347 49.6481 14.848C50.8614 16.0267 51.7974 17.448 52.4561 19.112C53.1494 20.776 53.4961 22.596 53.4961 24.572C53.4961 26.548 53.1494 28.368 52.4561 30.032C51.7974 31.696 50.8614 33.1347 49.6481 34.348C48.4694 35.5267 47.0481 36.4627 45.3841 37.156C43.7547 37.8147 41.9521 38.144 39.9761 38.144C38.0001 38.144 36.1801 37.8147 34.5161 37.156C32.8867 36.4627 31.4654 35.5267 30.2521 34.348C29.0734 33.1347 28.1374 31.696 27.4441 30.032C26.7854 28.368 26.4561 26.548 26.4561 24.572C26.4561 22.596 26.7854 20.776 27.4441 19.112C28.1374 17.448 29.0734 16.0267 30.2521 14.848C31.4654 13.6347 32.8867 12.6987 34.5161 12.04C36.1801 11.3467 38.0001 11 39.9761 11ZM39.9761 31.852C40.8427 31.852 41.6747 31.696 42.4721 31.384C43.3041 31.0373 44.0321 30.552 44.6561 29.928C45.2801 29.304 45.7654 28.5413 46.1121 27.64C46.4934 26.7387 46.6841 25.716 46.6841 24.572C46.6841 23.428 46.4934 22.4053 46.1121 21.504C45.7654 20.6027 45.2801 19.84 44.6561 19.216C44.0321 18.592 43.3041 18.124 42.4721 17.812C41.6747 17.4653 40.8427 17.292 39.9761 17.292C39.0747 17.292 38.2254 17.4653 37.4281 17.812C36.6307 18.124 35.9201 18.592 35.2961 19.216C34.6721 19.84 34.1694 20.6027 33.7881 21.504C33.4414 22.4053 33.2681 23.428 33.2681 24.572C33.2681 25.716 33.4414 26.7387 33.7881 27.64C34.1694 28.5413 34.6721 29.304 35.2961 29.928C35.9201 30.552 36.6307 31.0373 37.4281 31.384C38.2254 31.696 39.0747 31.852 39.9761 31.852Z" fill="#1D2B44"/>
<path d="M81.636 30.812C80.5267 32.9613 78.9667 34.7293 76.956 36.116C74.98 37.468 72.5013 38.144 69.52 38.144C67.544 38.144 65.724 37.8147 64.06 37.156C62.4307 36.4627 61.0093 35.5093 59.796 34.296C58.6173 33.0827 57.6813 31.6613 56.988 30.032C56.3293 28.368 56 26.548 56 24.572C56 22.596 56.3293 20.776 56.988 19.112C57.6813 17.448 58.6173 16.0267 59.796 14.848C61.0093 13.6347 62.4307 12.6987 64.06 12.04C65.724 11.3467 67.544 11 69.52 11C72.4667 11 74.9453 11.676 76.956 13.028C78.9667 14.38 80.44 16.1307 81.376 18.28L75.136 20.88C74.5467 19.7013 73.784 18.8173 72.848 18.228C71.9467 17.604 70.8027 17.292 69.416 17.292C68.5147 17.292 67.6653 17.4653 66.868 17.812C66.0707 18.1587 65.36 18.644 64.736 19.268C64.1467 19.892 63.6787 20.6547 63.332 21.556C62.9853 22.4573 62.812 23.4627 62.812 24.572C62.812 25.6813 62.9853 26.6867 63.332 27.588C63.6787 28.4893 64.1467 29.252 64.736 29.876C65.36 30.5 66.0707 30.9853 66.868 31.332C67.6653 31.6787 68.5147 31.852 69.416 31.852C70.8373 31.852 72.0333 31.54 73.004 30.916C74.0093 30.2573 74.8067 29.3213 75.396 28.108L81.636 30.812Z" fill="#1D2B44"/>
<path d="M102.16 34.608H101.744C100.947 35.5787 99.976 36.4107 98.832 37.104C97.7227 37.7973 96.284 38.144 94.516 38.144C93.1987 38.144 91.9507 37.9187 90.772 37.468C89.628 37.052 88.6227 36.4627 87.756 35.7C86.8893 34.9373 86.2133 34.0187 85.728 32.944C85.2427 31.8693 85 30.6907 85 29.408C85 28.0907 85.26 26.912 85.78 25.872C86.3 24.7973 87.028 23.8787 87.964 23.116C88.9 22.3533 89.992 21.7813 91.24 21.4C92.5227 20.984 93.9093 20.776 95.4 20.776C97.064 20.776 98.4333 20.9147 99.508 21.192C100.583 21.4347 101.467 21.6947 102.16 21.972V21.192C102.16 19.84 101.623 18.7307 100.548 17.864C99.4733 16.9627 98.1387 16.512 96.544 16.512C94.1867 16.512 92.1933 17.5 90.564 19.476L85.624 16.096C88.328 12.6987 92.02 11 96.7 11C100.652 11 103.668 11.936 105.748 13.808C107.828 15.6453 108.868 18.384 108.868 22.024V37.312H102.16V34.608ZM102.16 26.964C101.363 26.5827 100.531 26.288 99.664 26.08C98.832 25.8373 97.9133 25.716 96.908 25.716C95.2787 25.716 94.0133 26.08 93.112 26.808C92.2453 27.5013 91.812 28.368 91.812 29.408C91.812 30.448 92.228 31.28 93.06 31.904C93.9267 32.528 94.9147 32.84 96.024 32.84C96.9253 32.84 97.7573 32.684 98.52 32.372C99.2827 32.0253 99.924 31.592 100.444 31.072C100.999 30.5173 101.415 29.8933 101.692 29.2C102.004 28.472 102.16 27.7267 102.16 26.964Z" fill="#1D2B44"/>
<path d="M112 38.232V1H118.812V38.232H112Z" fill="#1D2B44"/>
<path d="M136.248 0C137.219 0 138.12 0.0866661 138.952 0.259999C139.784 0.433332 140.529 0.658666 141.188 0.936L139.264 7.02C138.917 6.84667 138.536 6.708 138.12 6.604C137.739 6.5 137.253 6.448 136.664 6.448C135.659 6.448 134.861 6.77733 134.272 7.436C133.683 8.06 133.388 8.944 133.388 10.088V12.168H139.732V17.992H133.388V37.648H126.576V17.992H122V12.168H126.576V9.672C126.576 8.112 126.801 6.74267 127.252 5.564C127.737 4.35067 128.413 3.34533 129.28 2.548C130.147 1.716 131.169 1.092 132.348 0.676001C133.527 0.225334 134.827 0 136.248 0Z" fill="#4885ED"/>
<path d="M153.712 35.232L143 11H150.748L157.196 26.444H157.56L163.748 11H171.34L155.376 47.712H148.044L153.712 35.232Z" fill="#4885ED"/>
</g>
<defs>
<clipPath id="clip0_1_19">
<rect width="172" height="48" fill="white"/>
</clipPath>
</defs>
</svg>
